<svg width="40" height="40" viewBox="0 0 40 40" fill="none" xmlns="http://www.w3.org/2000/svg">
<path d="M15.8795 22.458C16.1182 21.8733 16.3608 21.2902 16.5925 20.7027C16.6433 20.5737 16.6974 20.5093 16.8487 20.5132C17.292 20.5245 17.7358 20.5172 18.2117 20.5172C18.2117 21.1514 18.2117 21.7757 18.2158 22.4226C18.2199 23.6041 18.2199 24.7629 18.2199 25.9364C17.7717 25.9364 17.3469 25.9364 16.9044 25.9364C16.9044 24.8943 16.9044 23.8609 16.9044 22.8276C16.8893 22.8236 16.8742 22.8197 16.8591 22.8158C16.792 22.992 16.7232 23.1676 16.6579 23.3446C16.3621 24.1458 16.0632 24.9459 15.7756 25.7502C15.7198 25.9064 15.6459 25.9667 15.4791 25.955C15.2055 25.9357 14.865 26.0383 14.6743 25.9082C14.4869 25.7803 14.4458 25.4286 14.3491 25.1718C14.0578 24.3981 13.7707 23.6227 13.4397 22.8533C13.4397 23.8722 13.4397 24.8911 13.4397 25.9305C12.9903 25.9305 12.5668 25.9305 12.1298 25.9305C12.1239 25.8778 12.1127 25.8233 12.1126 25.7688C12.1118 24.0864 12.1118 22.404 12.1133 20.7217C12.1134 20.6585 12.1306 20.5953 12.1596 20.5197C12.5744 20.5106 12.9703 20.5306 13.3642 20.5108C13.5957 20.4992 13.7238 20.5716 13.7773 20.7954C13.7941 20.8656 13.8294 20.9312 13.8685 21.0286C13.929 21.1662 13.9772 21.274 14.0254 21.3819C14.1337 21.6617 14.2419 21.9414 14.361 22.2532C14.6335 22.9345 14.8951 23.5837 15.1771 24.2836C15.4247 23.64 15.6521 23.049 15.8795 22.458Z" fill="#0202B5"/>
<path d="M29.6061 23.1543C29.6025 22.2686 29.6025 21.4055 29.6025 20.5176C30.0355 20.5176 30.438 20.5103 30.8396 20.5249C30.905 20.5273 30.9834 20.6153 31.0278 20.6826C31.5604 21.4905 32.0878 22.3019 32.6331 23.1383C32.7933 23.3834 32.937 23.6025 33.1107 23.8675C33.1107 23.5798 33.1107 23.3556 33.1107 23.1314C33.1107 22.2681 33.1107 21.4048 33.1107 20.531C33.5652 20.531 33.9886 20.531 34.435 20.531C34.435 21.392 34.435 22.2392 34.4394 23.1091C34.4437 24.061 34.4437 24.9903 34.4437 25.9502C34.0098 25.9502 33.5991 25.9576 33.1892 25.9424C33.1255 25.9401 33.0513 25.8443 33.006 25.7756C32.3702 24.8123 31.7386 23.8461 31.1056 22.8808C31.063 22.8157 31.017 22.7527 30.9241 22.6969C30.9241 23.229 30.9241 23.7611 30.9241 24.2933C30.9241 24.8315 30.9241 25.3697 30.9241 25.9295C30.4907 25.9295 30.0678 25.9295 29.6098 25.9295C29.6098 25.0141 29.6098 24.0956 29.6061 23.1543Z" fill="#0202B6"/>
<path d="M6.61246 25.1799C5.81401 24.2829 5.6672 23.2463 6.02845 22.1606C6.23039 21.5537 6.62188 21.0285 7.25588 20.7657C7.50778 20.6613 7.75424 20.5005 8.01529 20.4696C8.80316 20.3765 9.57038 20.4611 10.2472 20.9396C10.3264 20.9956 10.4013 21.0579 10.4928 21.1235C11.201 21.827 11.4618 22.6672 11.3532 23.6444C11.2223 24.8228 10.1924 25.8545 9.02339 25.9785C8.10214 26.0763 7.29821 25.8453 6.61246 25.1799ZM7.2134 22.9737C7.2185 23.185 7.2016 23.3996 7.23239 23.607C7.38807 24.6559 8.60015 25.165 9.45136 24.5411C9.9582 24.1696 10.0698 23.6288 10.0375 23.043C9.99163 22.2119 9.45491 21.667 8.67643 21.6418C7.87047 21.6158 7.31472 22.1064 7.2134 22.9737Z" fill="#0303B6"/>
<path d="M24.5906 23.1578C24.8842 22.3386 25.1787 21.5395 25.4604 20.736C25.5173 20.5739 25.5869 20.5045 25.7671 20.5123C26.138 20.5284 26.5103 20.5253 26.8814 20.5132C27.0312 20.5083 27.0918 20.5647 27.1391 20.6998C27.4205 21.5041 27.7105 22.3053 28.01 23.1199C28.3215 23.9825 28.6207 24.8327 28.9195 25.683C28.9461 25.7585 28.9711 25.8347 29.0097 25.9484C28.5625 25.9484 28.1381 25.9529 27.7141 25.9421C27.6681 25.9409 27.6064 25.8594 27.5828 25.8022C27.515 25.6372 27.4383 25.4696 27.4103 25.2957C27.3667 25.0241 27.2193 24.9772 26.9749 24.9864C26.4742 25.0053 25.9721 24.9975 25.4708 24.9886C25.3329 24.9862 25.255 25.0235 25.2362 25.1636C25.2352 25.1713 25.2296 25.1784 25.2267 25.186C25.1339 25.4353 25.1081 25.7816 24.9297 25.9068C24.748 26.0344 24.4162 25.9455 24.1501 25.9491C23.9812 25.9514 23.8123 25.9496 23.6007 25.9496C23.9367 25.0049 24.2618 24.0906 24.5906 23.1578ZM26.5852 23.966C26.7042 23.966 26.8232 23.966 26.9672 23.966C26.7439 23.3039 26.5291 22.6672 26.2971 21.9792C26.1741 22.3522 26.0703 22.6683 25.9657 22.9842C25.8594 23.3056 25.7524 23.6266 25.6397 23.966C25.9566 23.966 26.2473 23.966 26.5852 23.966Z" fill="#0202B5"/>
<path d="M2.09036 25.9319C1.27607 25.7317 0.652097 25.2993 0.289483 24.5447C-0.0369215 23.8655 -0.066034 23.1525 0.0964109 22.4192C0.248888 21.731 0.611663 21.1982 1.20934 20.8444C1.7448 20.5275 2.3303 20.4192 2.95465 20.4689C3.4549 20.5087 3.92076 20.6386 4.31241 20.9465C4.57616 21.1538 4.81761 21.4056 5.0153 21.6773C5.14463 21.8551 5.17784 22.104 5.26511 22.3523C4.79043 22.3523 4.34817 22.3557 3.90611 22.3476C3.85813 22.3467 3.79689 22.2893 3.76623 22.2419C3.45514 21.762 3.00551 21.5975 2.46524 21.6816C1.87917 21.7728 1.53494 22.1524 1.39832 22.7144C1.2818 23.1937 1.30356 23.6747 1.54629 24.1182C2.0135 24.972 3.19229 25.0264 3.74916 24.2276C3.7869 24.1735 3.85114 24.102 3.90446 24.1008C4.34733 24.0906 4.79053 24.095 5.26248 24.095C4.98656 25.0895 4.35248 25.6588 3.39938 25.9247C2.95857 25.9316 2.53466 25.9311 2.09036 25.9319Z" fill="#0303B6"/>
<path d="M19.1562 22.468C19.1528 21.8116 19.1528 21.1779 19.1528 20.5171C19.6715 20.5171 20.1617 20.5134 20.6519 20.5183C21.0233 20.522 21.4012 20.495 21.7647 20.5539C22.9977 20.7535 23.5706 21.809 23.1151 23.0149C22.7231 23.7361 22.0871 23.9823 21.3323 24.0014C21.0584 24.0083 20.7841 24.0025 20.486 24.0025C20.486 24.6468 20.486 25.2786 20.486 25.9307C20.0394 25.9307 19.6162 25.9307 19.1596 25.9307C19.1596 24.7847 19.1596 23.6377 19.1562 22.468ZM20.4736 21.9824C20.4736 22.2971 20.4736 22.6118 20.4736 22.9347C20.7868 22.9347 21.0697 22.9495 21.3504 22.9309C21.6934 22.9081 21.8851 22.7005 21.9275 22.3493C21.9674 22.0182 21.8227 21.7052 21.5352 21.6482C21.1947 21.5808 20.8403 21.5847 20.4736 21.5563C20.4736 21.7239 20.4736 21.8292 20.4736 21.9824Z" fill="#0202B6"/>
<path d="M36.2731 23.0863C35.837 22.2349 35.4115 21.3955 34.9673 20.519C35.4585 20.519 35.9222 20.5138 36.3854 20.5267C36.4354 20.5281 36.4976 20.6277 36.5286 20.694C36.835 21.3488 37.136 22.0062 37.4484 22.6887C37.4832 22.7047 37.5081 22.6947 37.533 22.6847C37.8379 22.0205 38.1462 21.3579 38.4447 20.6908C38.5027 20.561 38.5714 20.5099 38.7157 20.5136C39.1274 20.5239 39.5395 20.5172 40 20.5172C39.5606 21.3787 39.136 22.2112 38.7079 23.0612C38.5275 23.4154 38.3459 23.7498 38.1771 24.0906C38.1401 24.1652 38.1382 24.2626 38.1376 24.3496C38.1342 24.8774 38.1359 25.4053 38.1359 25.9411C37.6928 25.9411 37.2745 25.9411 36.8233 25.9411C36.8233 25.6154 36.7975 25.29 36.829 24.9704C36.8864 24.3856 36.7468 23.8631 36.4302 23.3786C36.3729 23.2909 36.3321 23.192 36.2731 23.0863Z" fill="#0202B5"/>
<path d="M10.77 14.0618C11.1147 14.0618 11.4594 14.0618 11.8218 14.0618C11.8293 14.1439 11.8348 14.2045 11.8439 14.286C11.8475 15.6933 11.8475 17.0797 11.8475 18.4868C12.4158 18.4868 12.9708 18.4868 13.5418 18.4868C13.5418 18.8302 13.5418 19.1534 13.5418 19.5123C12.8005 19.5123 12.0507 19.5123 11.2786 19.5168C11.0602 19.5182 10.8643 19.5151 10.6462 19.5166C10.5917 19.4446 10.5314 19.3681 10.5311 19.2913C10.5251 17.9065 10.5264 16.5217 10.5225 15.1141C10.5213 15.039 10.5237 14.9866 10.5261 14.8921C10.5262 14.5944 10.5262 14.3387 10.5262 14.0866C10.6282 14.0762 10.6991 14.069 10.77 14.0618Z" fill="#0101B5"/>
<path d="M22.4869 15.9474C22.4819 15.3214 22.4819 14.718 22.4819 14.1212C22.5228 14.0998 22.5435 14.0792 22.5641 14.0795C23.4042 14.0891 24.2504 14.0403 25.0826 14.1278C26.0122 14.2255 26.5795 14.8032 26.6141 15.9038C26.5836 16.0824 26.5501 16.2402 26.5144 16.3975C26.3943 16.9261 26.0167 17.1964 25.555 17.3997C25.1867 17.5619 24.8056 17.5442 24.422 17.5431C24.2287 17.5425 24.0354 17.543 23.8166 17.543C23.8166 18.2011 23.8166 18.8419 23.8166 19.4968C23.3671 19.4968 22.9431 19.4968 22.4919 19.4968C22.4919 18.3163 22.4919 17.1431 22.4869 15.9474ZM25.2602 15.7217C25.1979 15.372 25.0573 15.2035 24.7152 15.1671C24.4221 15.1358 24.1232 15.1606 23.8244 15.1606C23.8244 15.6157 23.8244 16.059 23.8244 16.5114C24.0693 16.5114 24.2958 16.5142 24.5223 16.5109C25.0417 16.5033 25.2554 16.2869 25.2602 15.7217Z" fill="#0303B6"/>
<path d="M14.7336 14.0667C14.7922 14.0649 14.8288 14.0683 14.8834 14.0666C15.7478 14.0615 16.5944 14.0615 17.4592 14.0615C17.4592 14.4286 17.4592 14.7726 17.4592 15.1363C16.8106 15.1363 16.1605 15.1363 15.4857 15.1363C15.4857 15.3964 15.4857 15.638 15.4893 15.9022C15.4928 16.0144 15.4928 16.1039 15.4928 16.2333C15.768 16.2333 16.0476 16.2333 16.3272 16.2333C16.5863 16.2333 16.8457 16.226 17.104 16.2393C17.1591 16.2421 17.2541 16.3176 17.2562 16.3632C17.2702 16.6546 17.2634 16.9469 17.2634 17.2586C16.6653 17.2586 16.0931 17.2586 15.5031 17.2586C15.5031 17.6567 15.5031 18.0351 15.5031 18.4396C16.1509 18.4396 16.8018 18.4396 17.4702 18.4396C17.4702 18.8031 17.4702 19.1414 17.4702 19.4956C16.3875 19.4956 15.2998 19.4956 14.1839 19.4956C14.1839 18.5294 14.1839 17.5683 14.1785 16.5847C14.1731 15.7417 14.1731 14.9211 14.1731 14.0719C14.3771 14.0719 14.5444 14.0719 14.7336 14.0667Z" fill="#0404B6"/>
<path d="M18.3418 15.9474C18.3375 15.3152 18.3375 14.7057 18.3375 14.0851C19.4534 14.0851 20.5345 14.0851 21.6327 14.0851C21.6327 14.429 21.6327 14.7672 21.6327 15.1305C20.9883 15.1305 20.3378 15.1305 19.6612 15.1305C19.6612 15.3961 19.6612 15.6379 19.6654 15.9023C19.6696 16.0203 19.6696 16.1157 19.6696 16.2339C20.2512 16.2339 20.8217 16.2339 21.403 16.2339C21.403 16.5799 21.403 16.903 21.403 17.2492C20.8322 17.2492 20.2625 17.2492 19.6765 17.2492C19.6765 17.6582 19.6765 18.0444 19.6765 18.4511C20.325 18.4511 20.9698 18.4511 21.6321 18.4511C21.6321 18.8079 21.6321 19.145 21.6321 19.4967C20.5433 19.4967 19.4562 19.4967 18.3461 19.4967C18.3461 18.3164 18.3461 17.1432 18.3418 15.9474Z" fill="#0202B6"/>
<path d="M37.5147 22.6861C37.5081 22.6947 37.4832 22.7047 37.4591 22.7025C37.4721 22.6893 37.4843 22.6884 37.5147 22.6861Z" fill="#F7F7F9"/>
<path d="M0.21865 18.1538C0.217431 16.9042 0.219859 15.6773 0.218633 14.4277C0.221129 14.3013 0.22728 14.1977 0.236995 14.0339C1.16989 14.0765 2.09412 14.0983 3.01415 14.173C3.29059 14.1954 3.5553 14.3649 3.8531 14.4847C4.71865 15.0549 5.08516 15.8689 5.0583 16.8441C5.04647 17.2736 4.87596 17.6987 4.77749 18.1258C4.46586 18.7806 3.89762 19.1278 3.26528 19.387C3.10044 19.4545 2.91051 19.4856 2.73154 19.4878C1.90249 19.4981 1.07325 19.4924 0.222296 19.4924C0.222296 19.0522 0.222296 18.6143 0.21865 18.1538ZM3.21988 18.0439C3.81713 17.583 3.8482 16.5484 3.55937 15.9735C3.23445 15.3266 2.60349 15.1134 1.5494 15.2357C1.5494 16.2755 1.5494 17.3153 1.5494 18.3665C2.12661 18.3748 2.6954 18.426 3.21988 18.0439Z" fill="#0202B5"/>
<path d="M9.1031 14.449C9.42988 14.7751 9.63196 15.1464 9.64664 15.6182C9.16502 15.6182 8.69081 15.6182 8.21673 15.6182C8.18626 15.1507 7.63997 14.9581 7.28757 15.144C7.17626 15.2027 7.10602 15.3922 7.07149 15.5353C7.02137 15.7429 7.14764 15.8969 7.32828 15.9786C7.60356 16.1031 7.89033 16.2015 8.16809 16.3209C8.48973 16.459 8.83004 16.5715 9.12072 16.7603C9.58631 17.0626 9.7709 17.5268 9.70544 18.1086C9.58 18.4226 9.48378 18.7362 9.3103 18.9978C9.1969 19.1688 8.98765 19.3058 8.79221 19.3829C8.54658 19.4797 8.27219 19.5371 8.00841 19.5443C7.60392 19.5554 7.19367 19.6142 6.79446 19.4507C6.2648 19.2338 5.86999 18.897 5.69809 18.3317C5.68242 18.2801 5.68381 18.2233 5.66563 18.1306C5.6411 18.0289 5.6282 17.9655 5.61499 17.9005C6.11084 17.9005 6.57658 17.9005 7.05122 17.9005C7.08696 18.2352 7.27156 18.4183 7.58021 18.4995C7.87578 18.5773 8.20534 18.4072 8.29533 18.1117C8.37588 17.8471 8.3025 17.6768 7.97682 17.5379C7.48154 17.3266 6.96384 17.1676 6.47312 16.9469C6.11843 16.7874 5.8302 16.5214 5.73049 16.1192C5.5748 15.4912 5.64609 14.9137 6.15828 14.4562C7.05664 13.775 8.49374 13.9276 9.1031 14.449Z" fill="#0303B6"/>
</svg>
