<svg width="25" height="25" viewBox="0 0 25 25" fill="none" xmlns="http://www.w3.org/2000/svg">
<path d="M1.66797 16.7806V11.3717C1.66797 11.028 2.04288 10.8158 2.33757 10.9926L10.2857 15.7615C10.4243 15.8446 10.5973 15.8455 10.7368 15.7638L22.6666 8.77042C22.9613 8.59764 23.3323 8.81019 23.3323 9.15184V15.4542M21.5638 12.3593L11.9352 18.0489C11.8743 18.0849 11.8369 18.1504 11.8369 18.2211V20.8977C11.8369 20.9754 11.7919 21.0461 11.7215 21.0789L10.6125 21.5965C10.5492 21.626 10.4751 21.6204 10.417 21.5817L9.27323 20.8192C9.21759 20.7821 9.18417 20.7196 9.18417 20.6527V17.7843C9.18417 17.7108 9.14377 17.6431 9.07899 17.6082L3.43649 14.57M19.0584 6.16952L14.4822 3.7468C14.2119 3.60374 13.887 3.61044 13.6229 3.7645L9.6263 6.09583M19.0584 6.16952L21.5638 7.49591M19.0584 6.16952L9.6263 6.09583M3.43649 9.70655L9.6263 6.09583" stroke="black"/>
</svg>
